<svg width="24" height="24" viewBox="0 0 24 24" fill="none" xmlns="http://www.w3.org/2000/svg">
<path d="M11.6545 5.77578C11.3986 4.3804 12.0583 2.94439 12.8529 1.97664C13.7286 0.908854 15.2314 0.0899883 16.5157 0C16.7326 1.46297 16.1356 2.88836 15.3497 3.8966C14.5066 4.97974 13.0571 5.8197 11.6545 5.77578ZM19.1875 10.832C19.5849 9.72329 20.3722 8.72577 21.5935 8.05273C20.3593 6.5126 18.6265 5.61845 16.9912 5.61845C14.8277 5.61845 13.9129 6.64923 12.4102 6.64923C10.8621 6.64923 9.68774 5.61845 7.81372 5.61845C5.97605 5.61845 4.01993 6.73851 2.77935 8.65142C2.32321 9.3585 2.01422 10.2369 1.8457 11.2153C1.3781 13.96 2.07659 17.535 4.16018 20.7094C5.17325 22.2497 6.52359 23.9847 8.28766 23.9998C9.85912 24.0152 10.3049 22.9951 12.4323 22.9846C14.5628 22.9725 14.9666 24.0104 16.5359 23.9954C18.3005 23.9805 19.7252 22.0604 20.7383 20.5203C21.4596 19.4151 21.7324 18.8568 22.2933 17.6073C19.4412 16.5317 18.2681 13.3889 19.1875 10.832Z" fill="#253017"/>
</svg>
