<svg width="24" height="24" viewBox="0 0 24 24" fill="none" xmlns="http://www.w3.org/2000/svg">
<path d="M14.7907 22H9.2093C4.15814 22 2 19.8419 2 14.7907V9.2093C2 4.15814 4.15814 2 9.2093 2H14.7907C19.8419 2 22 4.15814 22 9.2093V14.7907C22 19.8419 19.8419 22 14.7907 22ZM9.2093 3.39535C4.92093 3.39535 3.39535 4.92093 3.39535 9.2093V14.7907C3.39535 19.0791 4.92093 20.6047 9.2093 20.6047H14.7907C19.0791 20.6047 20.6047 19.0791 20.6047 14.7907V9.2093C20.6047 4.92093 19.0791 3.39535 14.7907 3.39535H9.2093Z" fill="#253017"/>
<path d="M10.8282 15.9814C10.6514 15.9814 10.4747 15.9163 10.3351 15.7767C10.0654 15.507 10.0654 15.0604 10.3351 14.7907L13.1258 12L10.3351 9.20928C10.0654 8.93951 10.0654 8.493 10.3351 8.22323C10.6049 7.95346 11.0514 7.95346 11.3212 8.22323L14.6049 11.507C14.8747 11.7767 14.8747 12.2232 14.6049 12.493L11.3212 15.7767C11.1817 15.9163 11.0049 15.9814 10.8282 15.9814Z" fill="#253017"/>
</svg>
