<svg width="24" height="24" viewBox="0 0 24 24" fill="none" xmlns="http://www.w3.org/2000/svg">
<path d="M14.7907 22H9.2093C4.15814 22 2 19.8419 2 14.7907V9.2093C2 4.15814 4.15814 2 9.2093 2H14.7907C19.8419 2 22 4.15814 22 9.2093V14.7907C22 19.8419 19.8419 22 14.7907 22ZM9.2093 3.39535C4.92093 3.39535 3.39535 4.92093 3.39535 9.2093V14.7907C3.39535 19.0791 4.92093 20.6047 9.2093 20.6047H14.7907C19.0791 20.6047 20.6047 19.0791 20.6047 14.7907V9.2093C20.6047 4.92093 19.0791 3.39535 14.7907 3.39535H9.2093Z" fill="#253017"/>
<path d="M13.1719 15.9814C12.9952 15.9814 12.8185 15.9163 12.6789 15.7767L9.3952 12.493C9.12543 12.2232 9.12543 11.7767 9.3952 11.507L12.6789 8.22323C12.9487 7.95346 13.3952 7.95346 13.665 8.22323C13.9347 8.493 13.9347 8.93951 13.665 9.20928L10.8743 12L13.665 14.7907C13.9347 15.0604 13.9347 15.507 13.665 15.7767C13.5347 15.9163 13.358 15.9814 13.1719 15.9814Z" fill="#253017"/>
</svg>
