<svg width="24" height="24" viewBox="0 0 24 24" fill="none" xmlns="http://www.w3.org/2000/svg">
<path d="M12 21.7549C11.7209 21.7549 11.4419 21.6898 11.2093 21.5596C9.46977 20.6107 6.4093 19.6061 4.49302 19.3549L4.22326 19.3177C3.00465 19.1689 2 18.0247 2 16.7875V5.55028C2 4.8154 2.28837 4.14563 2.8186 3.66191C3.34884 3.17819 4.03721 2.94563 4.76279 3.01074C6.8093 3.16888 9.89767 4.19214 11.6465 5.28981L11.8698 5.42005C11.9349 5.45726 12.0744 5.45726 12.1302 5.42935L12.2791 5.33633C14.0279 4.23865 17.1163 3.19679 19.1721 3.02005C19.1907 3.02005 19.2651 3.02005 19.2837 3.02005C19.9628 2.95493 20.6605 3.19679 21.1814 3.68051C21.7116 4.16423 22 4.834 22 5.56888V16.7968C22 18.0433 20.9953 19.1782 19.7674 19.327L19.4605 19.3642C17.5442 19.6154 14.4744 20.6293 12.7721 21.5689C12.5488 21.6991 12.2791 21.7549 12 21.7549ZM4.53954 4.39679C4.24186 4.39679 3.97209 4.49912 3.75814 4.69447C3.52558 4.90842 3.39535 5.2154 3.39535 5.55028V16.7875C3.39535 17.3363 3.86977 17.8666 4.4 17.941L4.67907 17.9782C6.77209 18.2573 9.9814 19.3084 11.8419 20.3224C11.9256 20.3596 12.0465 20.3689 12.093 20.3503C13.9535 19.3177 17.1814 18.2573 19.2837 17.9782L19.6 17.941C20.1302 17.8759 20.6047 17.3363 20.6047 16.7875V5.55958C20.6047 5.2154 20.4744 4.91772 20.2419 4.69447C20 4.48051 19.693 4.37819 19.3488 4.39679C19.3302 4.39679 19.2558 4.39679 19.2372 4.39679C17.4605 4.55493 14.5953 5.51307 13.0326 6.48981L12.8837 6.59214C12.3721 6.90842 11.6465 6.90842 11.1535 6.60144L10.9302 6.47121C9.33954 5.49447 6.47442 4.54563 4.65116 4.39679C4.61395 4.39679 4.57674 4.39679 4.53954 4.39679Z" fill="#253017"/>
<path d="M11.9999 20.9736C11.6185 20.9736 11.3022 20.6573 11.3022 20.2759V6.3224C11.3022 5.941 11.6185 5.62473 11.9999 5.62473C12.3813 5.62473 12.6976 5.941 12.6976 6.3224V20.2759C12.6976 20.6666 12.3813 20.9736 11.9999 20.9736Z" fill="#253017"/>
<path d="M8.04656 9.81075H5.95353C5.57214 9.81075 5.25586 9.49448 5.25586 9.11308C5.25586 8.73168 5.57214 8.41541 5.95353 8.41541H8.04656C8.42795 8.41541 8.74423 8.73168 8.74423 9.11308C8.74423 9.49448 8.42795 9.81075 8.04656 9.81075Z" fill="#253017"/>
<path d="M8.74423 12.6015H5.95353C5.57214 12.6015 5.25586 12.2852 5.25586 11.9038C5.25586 11.5224 5.57214 11.2061 5.95353 11.2061H8.74423C9.12563 11.2061 9.44191 11.5224 9.44191 11.9038C9.44191 12.2852 9.12563 12.6015 8.74423 12.6015Z" fill="#253017"/>
</svg>
