<svg width="24" height="24" viewBox="0 0 24 24" fill="none" xmlns="http://www.w3.org/2000/svg">
<path d="M15.4904 22H8.04854C3.75087 22 2.95087 20 2.74621 18.0558L2.04854 10.6046C1.94621 9.6279 1.91831 8.18604 2.88575 7.10697C3.72296 6.17674 5.10901 5.73022 7.11831 5.73022H16.4206C18.4392 5.73022 19.8253 6.18604 20.6532 7.10697C21.6206 8.18604 21.5927 9.6279 21.4904 10.6139L20.7927 18.0465C20.5881 20 19.7881 22 15.4904 22ZM7.11831 7.11627C5.54622 7.11627 4.46715 7.42325 3.91831 8.0372C3.46249 8.53953 3.31366 9.31162 3.43459 10.4651L4.13226 17.9163C4.2904 19.386 4.6904 20.6046 8.04854 20.6046H15.4904C18.8392 20.6046 19.2485 19.386 19.4067 17.907L20.1044 10.4744C20.2253 9.31162 20.0765 8.53953 19.6206 8.0372C19.0718 7.42325 17.9927 7.11627 16.4206 7.11627H7.11831Z" fill="#253017"/>
<path d="M15.4901 7.11628C15.1087 7.11628 14.7924 6.8 14.7924 6.41861V5.67442C14.7924 4.0186 14.7924 3.39535 12.5134 3.39535H11.025C8.74593 3.39535 8.74594 4.0186 8.74594 5.67442V6.41861C8.74594 6.8 8.42966 7.11628 8.04826 7.11628C7.66687 7.11628 7.35059 6.8 7.35059 6.41861V5.67442C7.35059 4.03721 7.35059 2 11.025 2H12.5134C16.1878 2 16.1878 4.03721 16.1878 5.67442V6.41861C16.1878 6.8 15.8715 7.11628 15.4901 7.11628Z" fill="#253017"/>
<path d="M11.7691 16.4186C9.21094 16.4186 9.21094 14.8372 9.21094 13.8884V12.9302C9.21094 11.6186 9.52722 11.3023 10.8388 11.3023H12.6993C14.0109 11.3023 14.3272 11.6186 14.3272 12.9302V13.8605C14.3272 14.8279 14.3272 16.4186 11.7691 16.4186ZM10.6063 12.6977C10.6063 12.7721 10.6063 12.8558 10.6063 12.9302V13.8884C10.6063 14.8465 10.6063 15.0233 11.7691 15.0233C12.9319 15.0233 12.9319 14.8744 12.9319 13.8791V12.9302C12.9319 12.8558 12.9319 12.7721 12.9319 12.6977C12.8575 12.6977 12.7737 12.6977 12.6993 12.6977H10.8388C10.7644 12.6977 10.6807 12.6977 10.6063 12.6977Z" fill="#253017"/>
<path d="M13.6296 14.5768C13.2854 14.5768 12.9785 14.3163 12.9412 13.9628C12.8947 13.5814 13.1645 13.2279 13.5459 13.1814C16.0017 12.8744 18.3552 11.9442 20.3366 10.5023C20.6436 10.2698 21.0808 10.3442 21.3133 10.6605C21.5366 10.9674 21.4715 11.4047 21.1552 11.6372C18.9785 13.2186 16.411 14.2326 13.7133 14.5768C13.6854 14.5768 13.6575 14.5768 13.6296 14.5768Z" fill="#253017"/>
<path d="M9.90907 14.5861C9.88116 14.5861 9.85326 14.5861 9.82535 14.5861C7.27651 14.2977 4.79279 13.3674 2.64395 11.8977C2.32767 11.6837 2.24395 11.2465 2.45791 10.9302C2.67186 10.614 3.10907 10.5302 3.42535 10.7442C5.38814 12.0837 7.6486 12.9302 9.97419 13.2C10.3556 13.2465 10.6347 13.5907 10.5881 13.9721C10.5602 14.3256 10.2626 14.5861 9.90907 14.5861Z" fill="#253017"/>
</svg>
