<svg width="24" height="24" viewBox="0 0 24 24" fill="none" xmlns="http://www.w3.org/2000/svg">
<path d="M8.34904 6.18605C7.96765 6.18605 7.65137 5.86977 7.65137 5.48837V2.69767C7.65137 2.31628 7.96765 2 8.34904 2C8.73044 2 9.04672 2.31628 9.04672 2.69767V5.48837C9.04672 5.86977 8.73044 6.18605 8.34904 6.18605Z" fill="#253017"/>
<path d="M15.7909 6.18605C15.4095 6.18605 15.0933 5.86977 15.0933 5.48837V2.69767C15.0933 2.31628 15.4095 2 15.7909 2C16.1723 2 16.4886 2.31628 16.4886 2.69767V5.48837C16.4886 5.86977 16.1723 6.18605 15.7909 6.18605Z" fill="#253017"/>
<path d="M8.81402 14.3256C8.69309 14.3256 8.57216 14.2977 8.46053 14.2512C8.3396 14.2047 8.24658 14.1395 8.15356 14.0558C7.98612 13.8791 7.88379 13.6465 7.88379 13.3953C7.88379 13.2744 7.9117 13.1535 7.95821 13.0419C8.00472 12.9302 8.06984 12.8279 8.15356 12.7349C8.24658 12.6512 8.3396 12.586 8.46053 12.5395C8.79542 12.4 9.21402 12.4744 9.47449 12.7349C9.64193 12.9116 9.74425 13.1535 9.74425 13.3953C9.74425 13.4512 9.73495 13.5163 9.72565 13.5814C9.71635 13.6372 9.69774 13.693 9.66983 13.7488C9.65123 13.8047 9.62333 13.8605 9.58612 13.9163C9.55821 13.9628 9.5117 14.0093 9.47449 14.0558C9.29774 14.2232 9.05588 14.3256 8.81402 14.3256Z" fill="#253017"/>
<path d="M12.0699 14.3256C11.949 14.3256 11.828 14.2977 11.7164 14.2512C11.5955 14.2046 11.5024 14.1395 11.4094 14.0558C11.242 13.879 11.1396 13.6465 11.1396 13.3953C11.1396 13.2744 11.1676 13.1535 11.2141 13.0418C11.2606 12.9302 11.3257 12.8279 11.4094 12.7349C11.5024 12.6512 11.5955 12.586 11.7164 12.5395C12.0513 12.3907 12.4699 12.4744 12.7303 12.7349C12.8978 12.9116 13.0001 13.1535 13.0001 13.3953C13.0001 13.4511 12.9908 13.5163 12.9815 13.5814C12.9722 13.6372 12.9536 13.693 12.9257 13.7488C12.9071 13.8046 12.8792 13.8604 12.842 13.9163C12.8141 13.9628 12.7676 14.0093 12.7303 14.0558C12.5536 14.2232 12.3117 14.3256 12.0699 14.3256Z" fill="#253017"/>
<path d="M15.3257 14.3256C15.2048 14.3256 15.0839 14.2977 14.9723 14.2512C14.8513 14.2046 14.7583 14.1395 14.6653 14.0558C14.6281 14.0093 14.5909 13.9628 14.5536 13.9163C14.5164 13.8604 14.4885 13.8046 14.4699 13.7488C14.442 13.693 14.4234 13.6372 14.4141 13.5814C14.4048 13.5163 14.3955 13.4511 14.3955 13.3953C14.3955 13.1535 14.4978 12.9116 14.6653 12.7349C14.7583 12.6512 14.8513 12.586 14.9723 12.5395C15.3164 12.3907 15.7257 12.4744 15.9862 12.7349C16.1536 12.9116 16.256 13.1535 16.256 13.3953C16.256 13.4511 16.2467 13.5163 16.2374 13.5814C16.2281 13.6372 16.2095 13.693 16.1816 13.7488C16.1629 13.8046 16.135 13.8604 16.0978 13.9163C16.0699 13.9628 16.0234 14.0093 15.9862 14.0558C15.8095 14.2232 15.5676 14.3256 15.3257 14.3256Z" fill="#253017"/>
<path d="M8.81402 17.5814C8.69309 17.5814 8.57216 17.5535 8.46053 17.507C8.3489 17.4605 8.24658 17.3953 8.15356 17.3116C7.98612 17.1349 7.88379 16.893 7.88379 16.6512C7.88379 16.5302 7.9117 16.4093 7.95821 16.2977C8.00472 16.1767 8.06984 16.0744 8.15356 15.9907C8.49774 15.6465 9.1303 15.6465 9.47449 15.9907C9.64193 16.1675 9.74425 16.4093 9.74425 16.6512C9.74425 16.893 9.64193 17.1349 9.47449 17.3116C9.29774 17.4791 9.05588 17.5814 8.81402 17.5814Z" fill="#253017"/>
<path d="M12.0699 17.5814C11.828 17.5814 11.5862 17.4791 11.4094 17.3116C11.242 17.1349 11.1396 16.893 11.1396 16.6512C11.1396 16.5302 11.1676 16.4093 11.2141 16.2977C11.2606 16.1767 11.3257 16.0744 11.4094 15.9907C11.7536 15.6465 12.3862 15.6465 12.7303 15.9907C12.8141 16.0744 12.8792 16.1767 12.9257 16.2977C12.9722 16.4093 13.0001 16.5302 13.0001 16.6512C13.0001 16.893 12.8978 17.1349 12.7303 17.3116C12.5536 17.4791 12.3117 17.5814 12.0699 17.5814Z" fill="#253017"/>
<path d="M15.3257 17.5814C15.0839 17.5814 14.842 17.4791 14.6653 17.3116C14.5816 17.2279 14.5164 17.1256 14.4699 17.0047C14.4234 16.893 14.3955 16.7721 14.3955 16.6512C14.3955 16.5303 14.4234 16.4093 14.4699 16.2977C14.5164 16.1768 14.5816 16.0744 14.6653 15.9907C14.8792 15.7768 15.2048 15.6744 15.5025 15.7395C15.5676 15.7488 15.6234 15.7675 15.6792 15.7954C15.735 15.814 15.7909 15.8419 15.8467 15.8791C15.8932 15.907 15.9397 15.9535 15.9862 15.9907C16.1536 16.1675 16.256 16.4093 16.256 16.6512C16.256 16.893 16.1536 17.1349 15.9862 17.3116C15.8095 17.4791 15.5676 17.5814 15.3257 17.5814Z" fill="#253017"/>
<path d="M19.977 9.99066H4.16301C3.78161 9.99066 3.46533 9.67438 3.46533 9.29298C3.46533 8.91159 3.78161 8.59531 4.16301 8.59531H19.977C20.3584 8.59531 20.6746 8.91159 20.6746 9.29298C20.6746 9.67438 20.3584 9.99066 19.977 9.99066Z" fill="#253017"/>
<path d="M15.7907 22H8.34884C4.95349 22 3 20.0465 3 16.6512V8.74419C3 5.34884 4.95349 3.39536 8.34884 3.39536H15.7907C19.186 3.39536 21.1395 5.34884 21.1395 8.74419V16.6512C21.1395 20.0465 19.186 22 15.7907 22ZM8.34884 4.7907C5.68837 4.7907 4.39535 6.08373 4.39535 8.74419V16.6512C4.39535 19.3116 5.68837 20.6047 8.34884 20.6047H15.7907C18.4512 20.6047 19.7442 19.3116 19.7442 16.6512V8.74419C19.7442 6.08373 18.4512 4.7907 15.7907 4.7907H8.34884Z" fill="#253017"/>
</svg>
