<svg width="24" height="24" viewBox="0 0 24 24" fill="none" xmlns="http://www.w3.org/2000/svg">
<path d="M8.68983 20C8.51449 20 8.33915 19.9354 8.20072 19.797C7.93309 19.5293 7.93309 19.0864 8.20072 18.8187L14.2177 12.8017C14.6607 12.3588 14.6607 11.6389 14.2177 11.196L8.20072 5.17895C7.93309 4.91132 7.93309 4.46835 8.20072 4.20072C8.46835 3.93309 8.91132 3.93309 9.17895 4.20072L15.196 10.2177C15.6666 10.6884 15.9342 11.3252 15.9342 11.9988C15.9342 12.6725 15.6758 13.3093 15.196 13.78L9.17895 19.797C9.04052 19.9262 8.86518 20 8.68983 20Z" fill="#253017"/>
</svg>
