<svg width="24" height="24" viewBox="0 0 24 24" fill="none" xmlns="http://www.w3.org/2000/svg">
<path d="M12 22C6.48372 22 2 17.5163 2 12C2 6.48372 6.48372 2 12 2C17.5163 2 22 6.48372 22 12C22 17.5163 17.5163 22 12 22ZM12 3.39535C7.25581 3.39535 3.39535 7.25581 3.39535 12C3.39535 16.7442 7.25581 20.6047 12 20.6047C16.7442 20.6047 20.6047 16.7442 20.6047 12C20.6047 7.25581 16.7442 3.39535 12 3.39535Z" fill="#253017"/>
<path d="M15.4515 15.6558C15.3306 15.6558 15.2096 15.6279 15.098 15.5535L12.2143 13.8326C11.498 13.4047 10.9678 12.4651 10.9678 11.6372V7.82327C10.9678 7.44187 11.2841 7.1256 11.6654 7.1256C12.0468 7.1256 12.3631 7.44187 12.3631 7.82327V11.6372C12.3631 11.9721 12.6422 12.4651 12.9306 12.6326L15.8143 14.3535C16.1492 14.5489 16.2515 14.9768 16.0561 15.3116C15.9166 15.5349 15.6841 15.6558 15.4515 15.6558Z" fill="#253017"/>
</svg>
