<svg width="40" height="20" viewBox="0 0 40 20" fill="none" xmlns="http://www.w3.org/2000/svg">
<path d="M26.7226 16.0917C26.7226 15.9456 26.7764 15.7995 26.8918 15.6841L31.9067 10.6692C32.2759 10.3 32.2759 9.70004 31.9067 9.33084L26.8918 4.31594C26.6688 4.09289 26.6688 3.72369 26.8918 3.50064C27.1149 3.27758 27.4841 3.27758 27.7071 3.50064L32.722 8.51554C33.5373 9.33084 33.5373 10.6615 32.722 11.4845L27.7071 16.4994C27.4841 16.7224 27.1149 16.7224 26.8918 16.4994C26.7841 16.384 26.7226 16.2379 26.7226 16.0917Z" fill="#253017"/>
<path d="M6.72067 10C6.72067 9.4616 6.92834 8.92319 7.336 8.51554L12.3509 3.50064C12.574 3.27758 12.9431 3.27758 13.1662 3.50064C13.3893 3.72369 13.3893 4.09289 13.1662 4.31594L8.1513 9.33084C7.78211 9.70004 7.78211 10.3 8.1513 10.6692L13.1662 15.6841C13.3893 15.9071 13.3893 16.2763 13.1662 16.4994C12.9431 16.7224 12.574 16.7224 12.3509 16.4994L7.336 11.4845C6.92834 11.0768 6.72067 10.5384 6.72067 10Z" fill="#253017"/>
</svg>
