<svg width="24" height="24" viewBox="0 0 24 24" fill="none" xmlns="http://www.w3.org/2000/svg">
<path d="M16.7438 8.28754L8.25847 16.7728C7.96856 17.0627 7.48772 17.0627 7.19781 16.7728C6.9079 16.4829 6.9079 16.0021 7.19781 15.7122L15.6831 7.22688C15.973 6.93697 16.4538 6.93697 16.7438 7.22688C17.0337 7.51679 17.0337 7.99763 16.7438 8.28754Z" fill="#253017"/>
<path d="M16.7438 16.7728C16.4538 17.0627 15.973 17.0627 15.6831 16.7728L7.19781 8.28755C6.9079 7.99763 6.9079 7.5168 7.19781 7.22689C7.48772 6.93697 7.96856 6.93697 8.25847 7.22689L16.7438 15.7122C17.0337 16.0021 17.0337 16.4829 16.7438 16.7728Z" fill="#253017"/>
</svg>
