<svg width="24" height="24" viewBox="0 0 24 24" fill="none" xmlns="http://www.w3.org/2000/svg">
<path d="M9.64483 15.0504C9.46806 15.0504 9.2913 14.9852 9.15175 14.8457C8.38887 14.0828 7.97021 13.0687 7.97021 11.9988C7.97021 9.77532 9.77508 7.97046 11.9986 7.97046C13.0685 7.97046 14.0826 8.38911 14.8454 9.15199C14.9757 9.28224 15.0501 9.459 15.0501 9.64507C15.0501 9.83114 14.9757 10.0079 14.8454 10.1382L10.1379 14.8457C9.99836 14.9852 9.82159 15.0504 9.64483 15.0504ZM11.9986 9.36597C10.5473 9.36597 9.36573 10.5475 9.36573 11.9988C9.36573 12.464 9.48667 12.9106 9.70995 13.3013L13.3011 9.7102C12.9103 9.48691 12.4638 9.36597 11.9986 9.36597Z" fill="#253017"/>
<path d="M6.04471 18.0554C5.88655 18.0554 5.71909 17.9996 5.58885 17.8879C4.59338 17.0413 3.70025 15.9993 2.93737 14.7899C1.95121 13.2548 1.95121 10.7522 2.93737 9.20783C5.20741 5.65393 8.51012 3.60718 11.9989 3.60718C14.0456 3.60718 16.0645 4.31424 17.8321 5.64462C18.1391 5.87721 18.2043 6.31447 17.9717 6.62148C17.7391 6.92849 17.3018 6.99362 16.9948 6.76103C15.4691 5.60741 13.7386 5.00269 11.9989 5.00269C8.99389 5.00269 6.11914 6.80755 4.1096 9.96141C3.41185 11.0499 3.41185 12.9478 4.1096 14.0363C4.80736 15.1248 5.60745 16.0644 6.49128 16.8273C6.77968 17.0785 6.8169 17.5158 6.5657 17.8135C6.43546 17.9716 6.24008 18.0554 6.04471 18.0554Z" fill="#253017"/>
<path d="M11.9991 20.3905C10.7618 20.3905 9.55232 20.1393 8.3894 19.6462C8.03587 19.4974 7.86841 19.088 8.01726 18.7345C8.16612 18.381 8.57547 18.2135 8.92899 18.3624C9.91516 18.781 10.9478 18.995 11.9898 18.995C14.9948 18.995 17.8696 17.1902 19.8791 14.0363C20.5769 12.9478 20.5769 11.0499 19.8791 9.9614C19.5907 9.50554 19.2744 9.06827 18.9395 8.65892C18.6976 8.36122 18.7441 7.92396 19.0418 7.67276C19.3395 7.43087 19.7768 7.46809 20.028 7.7751C20.3908 8.22166 20.7443 8.70544 21.0606 9.20783C22.0468 10.7429 22.0468 13.2455 21.0606 14.7899C18.7906 18.3438 15.4879 20.3905 11.9991 20.3905Z" fill="#253017"/>
<path d="M12.641 15.9714C12.3154 15.9714 12.0176 15.7388 11.9525 15.4039C11.8781 15.0224 12.1293 14.6596 12.5107 14.5945C13.5341 14.4084 14.39 13.5525 14.5761 12.5291C14.6505 12.1477 15.0133 11.9058 15.3948 11.9709C15.7762 12.0454 16.0274 12.4082 15.953 12.7896C15.6553 14.3991 14.3714 15.6737 12.7712 15.9714C12.7247 15.9621 12.6875 15.9714 12.641 15.9714Z" fill="#253017"/>
<path d="M2.69543 22C2.51866 22 2.3419 21.9349 2.20235 21.7953C1.93255 21.5255 1.93255 21.079 2.20235 20.8092L9.15199 13.8595C9.42179 13.5897 9.86836 13.5897 10.1382 13.8595C10.408 14.1293 10.408 14.5759 10.1382 14.8457L3.18851 21.7953C3.04896 21.9349 2.87219 22 2.69543 22Z" fill="#253017"/>
<path d="M14.3527 10.3428C14.1759 10.3428 13.9991 10.2777 13.8596 10.1382C13.5898 9.86836 13.5898 9.42179 13.8596 9.152L20.8092 2.20235C21.079 1.93255 21.5256 1.93255 21.7954 2.20235C22.0652 2.47215 22.0652 2.91871 21.7954 3.18851L14.8457 10.1382C14.7062 10.2777 14.5294 10.3428 14.3527 10.3428Z" fill="#253017"/>
</svg>
