<svg width="24" height="24" viewBox="0 0 24 24" fill="none" xmlns="http://www.w3.org/2000/svg">
<path d="M11.4235 18.4186C11.1165 18.4186 10.8095 18.3442 10.5304 18.186C9.963 17.8697 9.61881 17.293 9.61881 16.6418V13.7767C9.61881 13.6 9.47927 13.2558 9.33974 13.0791L7.32113 10.9581C6.93974 10.5767 6.65137 9.90696 6.65137 9.39533V8.15812C6.65137 7.12556 7.43276 6.32556 8.42811 6.32556H15.563C16.5397 6.32556 17.3397 7.12556 17.3397 8.10231V9.293C17.3397 9.94417 16.9676 10.6604 16.5956 11.0325L14.2421 13.1163C14.0932 13.2465 13.9351 13.5721 13.9351 13.8418V16.1674C13.9351 16.7535 13.5816 17.4046 13.1072 17.6837L12.3723 18.1581C12.0839 18.3349 11.7583 18.4186 11.4235 18.4186ZM8.42811 7.72091C8.20486 7.72091 8.04672 7.90696 8.04672 8.15812V9.39533C8.04672 9.51626 8.17695 9.83254 8.32579 9.98138L10.3909 12.1581C10.7072 12.5581 11.0142 13.2 11.0142 13.7767V16.6418C11.0142 16.8279 11.1351 16.9302 11.2095 16.9674C11.3118 17.0232 11.4793 17.0604 11.6281 16.9674L12.3723 16.4837C12.4467 16.4279 12.5397 16.2418 12.5397 16.1488V13.8232C12.5397 13.1628 12.8653 12.4279 13.3304 12.0465L15.6374 9.99998C15.7583 9.87905 15.9444 9.50696 15.9444 9.2744V8.10231C15.9444 7.89765 15.7676 7.72091 15.563 7.72091H8.42811Z" fill="#253017"/>
<path d="M14.7907 22H9.2093C4.15814 22 2 19.8419 2 14.7907V9.2093C2 4.15814 4.15814 2 9.2093 2H14.7907C19.8419 2 22 4.15814 22 9.2093V14.7907C22 19.8419 19.8419 22 14.7907 22ZM9.2093 3.39535C4.92093 3.39535 3.39535 4.92093 3.39535 9.2093V14.7907C3.39535 19.0791 4.92093 20.6047 9.2093 20.6047H14.7907C19.0791 20.6047 20.6047 19.0791 20.6047 14.7907V9.2093C20.6047 4.92093 19.0791 3.39535 14.7907 3.39535H9.2093Z" fill="#253017"/>
</svg>
