<svg width="24" height="24" viewBox="0 0 24 24" fill="none" xmlns="http://www.w3.org/2000/svg">
<path d="M9.20741 10.84C7.79381 10.84 6.6499 9.69606 6.6499 8.28245C6.6499 6.86885 7.79381 5.72495 9.20741 5.72495C10.621 5.72495 11.7649 6.86885 11.7649 8.28245C11.7649 9.69606 10.621 10.84 9.20741 10.84ZM9.20741 7.11995C8.56571 7.11995 8.04491 7.64075 8.04491 8.28245C8.04491 8.92416 8.56571 9.44496 9.20741 9.44496C9.84911 9.44496 10.3699 8.92416 10.3699 8.28245C10.3699 7.64075 9.84911 7.11995 9.20741 7.11995Z" fill="#253017"/>
<path d="M14.7875 22H9.20752C4.15761 22 2 19.8424 2 14.7925V9.21247C2 4.16255 4.15761 2.00494 9.20752 2.00494H12.9275C13.3088 2.00494 13.625 2.32114 13.625 2.70245C13.625 3.08375 13.3088 3.39995 12.9275 3.39995H9.20752C4.92021 3.39995 3.395 4.92515 3.395 9.21247V14.7925C3.395 19.0798 4.92021 20.605 9.20752 20.605H14.7875C19.0749 20.605 20.6001 19.0798 20.6001 14.7925V10.1425C20.6001 9.76117 20.9163 9.44497 21.2976 9.44497C21.6789 9.44497 21.9951 9.76117 21.9951 10.1425V14.7925C21.9951 19.8424 19.8375 22 14.7875 22Z" fill="#253017"/>
<path d="M15.4105 9.90996C15.0478 9.90996 14.713 9.77976 14.4712 9.52866C14.1829 9.24036 14.0434 8.81256 14.1085 8.37546L14.2945 7.08275C14.341 6.75725 14.5363 6.35735 14.7781 6.12485L18.1541 2.74894C19.5026 1.40044 20.6744 2.17234 21.251 2.74894C21.7997 3.29764 22.0508 3.87424 21.995 4.46945C21.9485 4.94375 21.7067 5.39945 21.251 5.84585L17.8751 9.22176C17.6426 9.45426 17.2427 9.64956 16.9172 9.70536L15.6244 9.89136C15.55 9.90996 15.4756 9.90996 15.4105 9.90996ZM19.1306 3.74404L15.7546 7.11995C15.7267 7.14785 15.6802 7.25015 15.6709 7.29665L15.4942 8.50566L16.7125 8.33826C16.7497 8.32896 16.852 8.28246 16.8892 8.24526L20.2652 4.86935C20.4698 4.66475 20.5907 4.47875 20.6 4.33925C20.6186 4.14394 20.4233 3.90214 20.2652 3.74404C19.7816 3.26044 19.5584 3.31624 19.1306 3.74404Z" fill="#253017"/>
<path d="M20.2745 6.54336C20.2094 6.54336 20.1443 6.53406 20.0885 6.51546C18.8423 6.16206 17.8472 5.16695 17.4938 3.92075C17.3915 3.54875 17.6054 3.16745 17.9774 3.06515C18.3494 2.96285 18.7307 3.17675 18.833 3.54875C19.0562 4.32995 19.6793 4.96235 20.4698 5.18555C20.8418 5.28786 21.0557 5.67846 20.9534 6.04116C20.8511 6.33876 20.5721 6.54336 20.2745 6.54336Z" fill="#253017"/>
<path d="M3.32061 19.1635C3.09741 19.1635 2.87421 19.0519 2.74401 18.8566C2.53011 18.5404 2.61381 18.1033 2.93001 17.8894L7.51492 14.8111C8.51933 14.1415 9.90503 14.2159 10.8164 14.9878L11.1233 15.2575C11.5883 15.6574 12.3788 15.6574 12.8345 15.2575L16.7034 11.9374C17.6892 11.0911 19.2423 11.0911 20.2374 11.9374L21.7533 13.2394C22.0416 13.4905 22.0788 13.9276 21.8277 14.2252C21.5766 14.5135 21.1395 14.5507 20.8419 14.2996L19.326 12.9976C18.861 12.5977 18.0705 12.5977 17.6148 12.9976L13.7459 16.3177C12.7601 17.164 11.207 17.164 10.2119 16.3177L9.90503 16.048C9.47723 15.6853 8.77043 15.6481 8.29613 15.9736L3.72051 19.0519C3.59031 19.1263 3.45081 19.1635 3.32061 19.1635Z" fill="#253017"/>
</svg>
