<svg width="24" height="24" viewBox="0 0 24 24" fill="none" xmlns="http://www.w3.org/2000/svg">
<path d="M9.20951 10.8372C7.79555 10.8372 6.65137 9.69303 6.65137 8.27907C6.65137 6.86512 7.79555 5.72093 9.20951 5.72093C10.6235 5.72093 11.7676 6.86512 11.7676 8.27907C11.7676 9.69303 10.6235 10.8372 9.20951 10.8372ZM9.20951 7.11628C8.56765 7.11628 8.04672 7.63721 8.04672 8.27907C8.04672 8.92093 8.56765 9.44186 9.20951 9.44186C9.85137 9.44186 10.3723 8.92093 10.3723 8.27907C10.3723 7.63721 9.85137 7.11628 9.20951 7.11628Z" fill="#253017"/>
<path d="M14.7907 22H9.2093C4.15814 22 2 19.8419 2 14.7907V9.2093C2 4.15814 4.15814 2 9.2093 2H12.9302C13.3116 2 13.6279 2.31628 13.6279 2.69767C13.6279 3.07907 13.3116 3.39535 12.9302 3.39535H9.2093C4.92093 3.39535 3.39535 4.92093 3.39535 9.2093V14.7907C3.39535 19.0791 4.92093 20.6047 9.2093 20.6047H14.7907C19.0791 20.6047 20.6047 19.0791 20.6047 14.7907V10.1395C20.6047 9.75814 20.9209 9.44186 21.3023 9.44186C21.6837 9.44186 22 9.75814 22 10.1395V14.7907C22 19.8419 19.8419 22 14.7907 22Z" fill="#253017"/>
<path d="M20.6045 6.18604H15.4882C15.1068 6.18604 14.7905 5.86976 14.7905 5.48837C14.7905 5.10697 15.1068 4.7907 15.4882 4.7907H20.6045C20.9859 4.7907 21.3022 5.10697 21.3022 5.48837C21.3022 5.86976 20.9859 6.18604 20.6045 6.18604Z" fill="#253017"/>
<path d="M18.0463 8.74419C17.6649 8.74419 17.3486 8.42791 17.3486 8.04651V2.93023C17.3486 2.54884 17.6649 2.23256 18.0463 2.23256C18.4277 2.23256 18.744 2.54884 18.744 2.93023V8.04651C18.744 8.42791 18.4277 8.74419 18.0463 8.74419Z" fill="#253017"/>
<path d="M3.32078 19.1628C3.09753 19.1628 2.87427 19.0512 2.74404 18.8558C2.53008 18.5395 2.61381 18.1023 2.93009 17.8884L7.51613 14.8093C8.52078 14.1395 9.90683 14.214 10.8185 14.986L11.1254 15.2558C11.5906 15.6558 12.3812 15.6558 12.8371 15.2558L16.7068 11.9349C17.7022 11.0884 19.2464 11.0884 20.2417 11.9349L21.758 13.2372C22.0464 13.4884 22.0836 13.9256 21.8324 14.2233C21.5812 14.5116 21.144 14.5488 20.8464 14.2977L19.3301 12.9954C18.865 12.5954 18.0743 12.5954 17.6185 12.9954L13.7487 16.3163C12.7626 17.1628 11.2092 17.1628 10.2138 16.3163L9.90683 16.0465C9.47892 15.6837 8.77195 15.6465 8.29753 15.9721L3.72078 19.0512C3.59055 19.1256 3.45102 19.1628 3.32078 19.1628Z" fill="#253017"/>
</svg>
