<svg width="24" height="24" viewBox="0 0 24 24" fill="none" xmlns="http://www.w3.org/2000/svg">
<path d="M12 22C6.48372 22 2 17.5163 2 12C2 6.48372 6.48372 2 12 2C17.5163 2 22 6.48372 22 12C22 17.5163 17.5163 22 12 22ZM12 3.39535C7.25581 3.39535 3.39535 7.25581 3.39535 12C3.39535 16.7442 7.25581 20.6047 12 20.6047C16.7442 20.6047 20.6047 16.7442 20.6047 12C20.6047 7.25581 16.7442 3.39535 12 3.39535Z" fill="#253017"/>
<path d="M9.20971 21.0698H8.27948C7.89809 21.0698 7.58181 20.7535 7.58181 20.3721C7.58181 19.9907 7.87948 19.6837 8.26088 19.6744C6.80041 14.6884 6.80041 9.31163 8.26088 4.32559C7.87948 4.31628 7.58181 4.00931 7.58181 3.62791C7.58181 3.24652 7.89809 2.93024 8.27948 2.93024H9.20971C9.43297 2.93024 9.64692 3.04186 9.77715 3.21861C9.90739 3.40466 9.9446 3.63721 9.87018 3.85117C8.12134 9.10698 8.12134 14.893 9.87018 20.1581C9.9446 20.3721 9.90739 20.6047 9.77715 20.7907C9.64692 20.9581 9.43297 21.0698 9.20971 21.0698Z" fill="#253017"/>
<path d="M14.7907 21.0698C14.7163 21.0698 14.6418 21.0605 14.5674 21.0325C14.2046 20.9116 14 20.5116 14.1302 20.1488C15.8791 14.893 15.8791 9.10697 14.1302 3.84185C14.0093 3.47906 14.2046 3.07906 14.5674 2.95813C14.9395 2.8372 15.3302 3.03255 15.4511 3.39534C17.3023 8.93952 17.3023 15.0418 15.4511 20.5767C15.3581 20.8837 15.0791 21.0698 14.7907 21.0698Z" fill="#253017"/>
<path d="M11.9999 16.8372C9.40459 16.8372 6.81855 16.4744 4.32552 15.7395C4.31622 16.1116 4.00925 16.4186 3.62785 16.4186C3.24645 16.4186 2.93018 16.1023 2.93018 15.7209V14.7907C2.93018 14.5674 3.0418 14.3535 3.21855 14.2232C3.40459 14.093 3.63715 14.0558 3.85111 14.1302C9.10692 15.8791 14.9023 15.8791 20.1581 14.1302C20.372 14.0558 20.6046 14.093 20.7906 14.2232C20.9767 14.3535 21.079 14.5674 21.079 14.7907V15.7209C21.079 16.1023 20.7627 16.4186 20.3813 16.4186C19.9999 16.4186 19.693 16.1209 19.6837 15.7395C17.1813 16.4744 14.5953 16.8372 11.9999 16.8372Z" fill="#253017"/>
<path d="M20.3721 9.90697C20.2976 9.90697 20.2232 9.89767 20.1488 9.86976C14.893 8.12093 9.09763 8.12093 3.84182 9.86976C3.46973 9.99069 3.07903 9.79534 2.9581 9.43255C2.84647 9.06046 3.04182 8.66976 3.40461 8.54883C8.94879 6.69767 15.0511 6.69767 20.586 8.54883C20.9488 8.66976 21.1534 9.06976 21.0232 9.43255C20.9395 9.72093 20.6604 9.90697 20.3721 9.90697Z" fill="#253017"/>
</svg>
