<svg width="24" height="24" viewBox="0 0 24 24" fill="none" xmlns="http://www.w3.org/2000/svg">
<path d="M24.0002 12.2658C24.0002 11.2792 23.9185 10.5592 23.7417 9.8125H12.2451V14.2658H18.9934C18.8574 15.3725 18.1227 17.0392 16.49 18.1591L16.4671 18.3082L20.1021 21.0679L20.354 21.0925C22.6668 18.9991 24.0002 15.9191 24.0002 12.2658Z" fill="#4285F4"/>
<path d="M12.245 23.9997C15.551 23.9997 18.3265 22.933 20.3538 21.093L16.4898 18.1596C15.4558 18.8663 14.068 19.3596 12.245 19.3596C9.00688 19.3596 6.25861 17.2664 5.27892 14.373L5.13532 14.385L1.35558 17.2517L1.30615 17.3863C3.31974 21.3063 7.4558 23.9997 12.245 23.9997Z" fill="#34A853"/>
<path d="M5.27886 14.3731C5.02036 13.6265 4.87076 12.8264 4.87076 11.9998C4.87076 11.1731 5.02036 10.3731 5.26526 9.62643L5.25841 9.46741L1.43131 6.55469L1.30609 6.61306C0.476196 8.23974 0 10.0664 0 11.9998C0 13.9331 0.476196 15.7597 1.30609 17.3864L5.27886 14.3731Z" fill="#FBBC05"/>
<path d="M12.245 4.63997C14.5442 4.63997 16.0952 5.6133 16.9796 6.42669L20.4354 3.12C18.313 1.18667 15.551 0 12.245 0C7.4558 0 3.31974 2.69331 1.30615 6.61328L5.26532 9.62665C6.25861 6.73333 9.00688 4.63997 12.245 4.63997Z" fill="#EB4335"/>
</svg>
