<svg width="24" height="24" viewBox="0 0 24 24" fill="none" xmlns="http://www.w3.org/2000/svg">
<path d="M17.386 22H6.61395C4.06512 22 2 19.9233 2 17.3717V10.4711C2 9.20464 2.7814 7.61221 3.78605 6.82996L8.8 2.91871C10.307 1.74534 12.7163 1.68946 14.2791 2.78834L20.0279 6.82064C21.1349 7.59358 22 9.2512 22 10.6015V17.381C22 19.9233 19.9349 22 17.386 22ZM9.65581 4.01758L4.64186 7.92883C3.9814 8.45033 3.39535 9.63302 3.39535 10.4711V17.3717C3.39535 19.1504 4.83721 20.6031 6.61395 20.6031H17.386C19.1628 20.6031 20.6047 19.1597 20.6047 17.381V10.6015C20.6047 9.70752 19.9628 8.46895 19.2279 7.96608L13.4791 3.93377C12.4186 3.18877 10.6698 3.22602 9.65581 4.01758Z" fill="#253017"/>
<path d="M12 18.75C11.59 18.75 11.25 18.41 11.25 18V15C11.25 14.59 11.59 14.25 12 14.25C12.41 14.25 12.75 14.59 12.75 15V18C12.75 18.41 12.41 18.75 12 18.75Z" fill="#253017"/>
</svg>
