<svg width="24" height="24" viewBox="0 0 24 24" fill="none" xmlns="http://www.w3.org/2000/svg">
<path d="M8.86685 22H8.99343C13.3167 22 15.4004 20.296 15.7607 16.4791C15.7997 16.0798 15.5075 15.7196 15.0986 15.6806C14.7091 15.6417 14.3391 15.9435 14.3001 16.3427C14.0178 19.4002 12.5767 20.5394 8.98369 20.5394H8.85711C4.89411 20.5394 3.49197 19.1373 3.49197 15.1743V8.82571C3.49197 4.86271 4.89411 3.46056 8.85711 3.46056H8.98369C12.5962 3.46056 14.0372 4.61928 14.3001 7.73515C14.3488 8.13437 14.6896 8.43622 15.0986 8.39727C15.5075 8.36806 15.7997 8.00779 15.7704 7.60857C15.4394 3.7332 13.3459 2 8.99343 2H8.86685C4.08593 2 2.04114 4.04479 2.04114 8.82571V15.1743C2.04114 19.9552 4.08593 22 8.86685 22Z" fill="#253017"/>
<path d="M9.10052 12.7303H20.1813C20.5806 12.7303 20.9116 12.3992 20.9116 12C20.9116 11.6008 20.5806 11.2697 20.1813 11.2697H9.10052C8.7013 11.2697 8.37024 11.6008 8.37024 12C8.37024 12.3992 8.7013 12.7303 9.10052 12.7303Z" fill="#253017"/>
<path d="M18.0102 15.9922C18.1952 15.9922 18.3802 15.924 18.5263 15.778L21.7882 12.5161C22.0706 12.2337 22.0706 11.7663 21.7882 11.4839L18.5263 8.22201C18.2439 7.93963 17.7765 7.93963 17.4942 8.22201C17.2118 8.50438 17.2118 8.97176 17.4942 9.25414L20.24 12L17.4942 14.7459C17.2118 15.0282 17.2118 15.4956 17.4942 15.778C17.6305 15.924 17.8252 15.9922 18.0102 15.9922Z" fill="#253017"/>
</svg>
