<svg width="24" height="24" viewBox="0 0 24 24" fill="none" xmlns="http://www.w3.org/2000/svg">
<path d="M14.7907 22H9.2093C4.15814 22 2 19.8419 2 14.7907V9.2093C2 4.15814 4.15814 2 9.2093 2H14.7907C19.8419 2 22 4.15814 22 9.2093V14.7907C22 19.8419 19.8419 22 14.7907 22ZM9.2093 3.39535C4.92093 3.39535 3.39535 4.92093 3.39535 9.2093V14.7907C3.39535 19.0791 4.92093 20.6047 9.2093 20.6047H14.7907C19.0791 20.6047 20.6047 19.0791 20.6047 14.7907V9.2093C20.6047 4.92093 19.0791 3.39535 14.7907 3.39535H9.2093Z" fill="#253017"/>
<path d="M12.0001 12.9302C11.4791 12.9302 11.0698 12.5116 11.0698 12C11.0698 11.4884 11.4884 11.0698 12.0001 11.0698C12.5117 11.0698 12.9303 11.4884 12.9303 12C12.9303 12.5116 12.521 12.9302 12.0001 12.9302Z" fill="#253017"/>
<path d="M15.7208 12.9302C15.1998 12.9302 14.7905 12.5116 14.7905 12C14.7905 11.4884 15.2091 11.0698 15.7208 11.0698C16.2324 11.0698 16.651 11.4884 16.651 12C16.651 12.5116 16.2417 12.9302 15.7208 12.9302Z" fill="#253017"/>
<path d="M8.27887 12.9302C7.75794 12.9302 7.34863 12.5116 7.34863 12C7.34863 11.4884 7.76724 11.0698 8.27887 11.0698C8.79049 11.0698 9.2091 11.4884 9.2091 12C9.2091 12.5116 8.7998 12.9302 8.27887 12.9302Z" fill="#253017"/>
</svg>
