<svg width="24" height="24" viewBox="0 0 24 24" fill="none" xmlns="http://www.w3.org/2000/svg">
<path d="M3.527 14.493C3.3353 15.7476 4.1912 16.6179 5.2388 17.0517C9.2555 18.7167 14.8445 18.7167 18.8612 17.0517C19.9088 16.6179 20.7647 15.7467 20.573 14.493C20.456 13.7217 19.8737 13.08 19.4426 12.4527C18.8783 11.6211 18.8225 10.7148 18.8216 9.75C18.8225 6.0222 15.7913 3 12.05 3C8.3087 3 5.2775 6.0222 5.2775 9.75C5.2775 10.7148 5.2217 11.622 4.6565 12.4527C4.2263 13.08 3.6449 13.7217 3.527 14.493Z" stroke="#253017" stroke-width="1.5" stroke-linecap="round" stroke-linejoin="round"/>
<path d="M8.4502 18.3C8.8624 19.8525 10.3186 21 12.0502 21C13.7827 21 15.2371 19.8525 15.6502 18.3" stroke="#253017" stroke-width="1.5" stroke-linecap="round" stroke-linejoin="round"/>
</svg>
