<svg width="24" height="24" viewBox="0 0 24 24" fill="none" xmlns="http://www.w3.org/2000/svg">
<path d="M15.4038 8.784C14.7135 8.784 14.1538 8.22435 14.1538 7.534C14.1538 6.84364 14.7135 6.284 15.4038 6.284C16.0942 6.284 16.6538 6.84364 16.6538 7.534C16.6538 8.22435 16.0942 8.784 15.4038 8.784Z" fill="#253017"/>
<path d="M10.9058 7.97101C10.2154 7.97101 9.65576 7.41136 9.65576 6.72101C9.65576 6.03065 10.2154 5.47101 10.9058 5.47101C11.5961 5.47101 12.1558 6.03065 12.1558 6.72101C12.1558 7.41136 11.5961 7.97101 10.9058 7.97101Z" fill="#253017"/>
<path d="M7.40381 10.69C6.71345 10.69 6.15381 10.1304 6.15381 9.44C6.15381 8.74965 6.71345 8.19 7.40381 8.19C8.09416 8.19 8.65381 8.74965 8.65381 9.44C8.65381 10.1304 8.09416 10.69 7.40381 10.69Z" fill="#253017"/>
<path d="M6.43506 14.906C5.7447 14.906 5.18506 14.3464 5.18506 13.656C5.18506 12.9656 5.7447 12.406 6.43506 12.406C7.12541 12.406 7.68506 12.9656 7.68506 13.656C7.68506 14.3464 7.12541 14.906 6.43506 14.906Z" fill="#253017"/>
<path d="M8.65381 18.698C7.96345 18.698 7.40381 18.1384 7.40381 17.448C7.40381 16.7576 7.96345 16.198 8.65381 16.198C9.34416 16.198 9.90381 16.7576 9.90381 17.448C9.90381 18.1384 9.34416 18.698 8.65381 18.698Z" fill="#253017"/>
<path d="M21.25 12.25C21.25 10.4205 20.7075 8.63213 19.6911 7.11098C18.6747 5.58982 17.23 4.40423 15.5398 3.70412C13.8496 3.00401 11.9897 2.82083 10.1954 3.17774C8.40109 3.53465 6.7529 4.41563 5.45927 5.70927C4.16563 7.0029 3.28465 8.65109 2.92774 10.4454C2.57083 12.2397 2.75401 14.0996 3.45412 15.7898C4.15423 17.48 5.33982 18.9247 6.86098 19.9411C8.38213 20.9575 10.1705 21.5 12 21.5C13.318 21.5 14.224 20.22 14.329 18.906L14.446 17.433C14.5029 16.7211 14.8119 16.0528 15.3175 15.5484C15.823 15.0439 16.492 14.7363 17.204 14.681L18.855 14.552C20.135 14.452 21.25 13.533 21.25 12.25Z" stroke="#253017" stroke-width="1.5" stroke-linejoin="round"/>
</svg>
