<svg width="24" height="24" viewBox="0 0 24 24" fill="none" xmlns="http://www.w3.org/2000/svg">
<path d="M12 22C6.48372 22 2 17.5163 2 12C2 6.48372 6.48372 2 12 2C17.5163 2 22 6.48372 22 12C22 17.5163 17.5163 22 12 22ZM12 3.39535C7.25581 3.39535 3.39535 7.25581 3.39535 12C3.39535 16.7442 7.25581 20.6047 12 20.6047C16.7442 20.6047 20.6047 16.7442 20.6047 12C20.6047 7.25581 16.7442 3.39535 12 3.39535Z" fill="#253017"/>
<path d="M15.7211 12.6977H8.27922C7.89782 12.6977 7.58154 12.3814 7.58154 12C7.58154 11.6186 7.89782 11.3023 8.27922 11.3023H15.7211C16.1025 11.3023 16.4188 11.6186 16.4188 12C16.4188 12.3814 16.1025 12.6977 15.7211 12.6977Z" fill="#253017"/>
<path d="M11.9999 16.4186C11.6185 16.4186 11.3022 16.1023 11.3022 15.7209V8.27906C11.3022 7.89767 11.6185 7.58139 11.9999 7.58139C12.3813 7.58139 12.6976 7.89767 12.6976 8.27906V15.7209C12.6976 16.1023 12.3813 16.4186 11.9999 16.4186Z" fill="#253017"/>
</svg>
