<svg width="24" height="24" viewBox="0 0 24 24" fill="none" xmlns="http://www.w3.org/2000/svg">
<path d="M16.6512 20.2093H7.34884C3.95349 20.2093 2 18.2558 2 14.8605V8.34884C2 4.95349 3.95349 3 7.34884 3H16.6512C20.0465 3 22 4.95349 22 8.34884V14.8605C22 18.2558 20.0465 20.2093 16.6512 20.2093ZM7.34884 4.39535C4.68837 4.39535 3.39535 5.68837 3.39535 8.34884V14.8605C3.39535 17.5209 4.68837 18.814 7.34884 18.814H16.6512C19.3116 18.814 20.6047 17.5209 20.6047 14.8605V8.34884C20.6047 5.68837 19.3116 4.39535 16.6512 4.39535H7.34884Z" fill="#253017"/>
<path d="M11.9998 12.4139C11.2184 12.4139 10.4277 12.1721 9.82305 11.6791L6.91142 9.35347C6.61375 9.11161 6.55794 8.6744 6.7998 8.37673C7.04166 8.07905 7.47887 8.02324 7.77654 8.2651L10.6882 10.5907C11.3951 11.1581 12.5951 11.1581 13.3021 10.5907L16.2137 8.2651C16.5114 8.02324 16.9579 8.06975 17.1905 8.37673C17.4324 8.6744 17.3858 9.12092 17.0789 9.35347L14.1672 11.6791C13.5719 12.1721 12.7812 12.4139 11.9998 12.4139Z" fill="#253017"/>
</svg>
