<svg width="24" height="24" viewBox="0 0 24 24" fill="none" xmlns="http://www.w3.org/2000/svg">
<path d="M12.5 22C11.8943 22 11.2886 21.7645 10.83 21.3021L5.1882 15.6144C4.93727 15.3614 4.93727 14.9427 5.1882 14.6897C5.43914 14.4368 5.85449 14.4368 6.10542 14.6897L11.7472 20.3774C12.1625 20.7962 12.8375 20.7962 13.2528 20.3774L18.8946 14.6897C19.1455 14.4368 19.5609 14.4368 19.8118 14.6897C20.0627 14.9427 20.0627 15.3614 19.8118 15.6144L14.17 21.3021C13.7114 21.7645 13.1057 22 12.5 22Z" fill="#253017"/>
<path d="M12.5 2C11.8943 2 11.2886 2.23553 10.83 2.69788L5.1882 8.38558C4.93727 8.63856 4.93727 9.05728 5.1882 9.31026C5.43914 9.56325 5.85449 9.56325 6.10542 9.31026L11.7472 3.62256C12.1625 3.20384 12.8375 3.20384 13.2528 3.62256L18.8946 9.31026C19.1455 9.56325 19.5609 9.56325 19.8118 9.31026C20.0627 9.05728 20.0627 8.63856 19.8118 8.38558L14.17 2.69788C13.7114 2.23553 13.1057 2 12.5 2Z" fill="#253017"/>
</svg>
