<svg width="24" height="24" viewBox="0 0 24 24" fill="none" xmlns="http://www.w3.org/2000/svg">
<path d="M2 14.7907V9.2093C2 4.15814 4.15814 2 9.2093 2H14.7907C19.8419 2 22 4.15814 22 9.2093V14.7907C22 19.8419 19.8419 22 14.7907 22H9.2093C4.15814 22 2 19.8419 2 14.7907ZM20.6047 9.2093C20.6047 4.92093 19.0791 3.39535 14.7907 3.39535H9.2093C4.92093 3.39535 3.39535 4.92093 3.39535 9.2093V14.7907C3.39535 19.0791 4.92093 20.6047 9.2093 20.6047H14.7907C19.0791 20.6047 20.6047 19.0791 20.6047 14.7907V9.2093Z" fill="#253017"/>
<path d="M8.48395 9.76744C8.48395 9.5907 8.54907 9.41395 8.6886 9.27442L11.0049 6.95814C11.5537 6.4093 12.4374 6.4093 12.9863 6.95814L15.3026 9.27442C15.5723 9.54418 15.5723 9.99069 15.3026 10.2605C15.0328 10.5302 14.5863 10.5302 14.3165 10.2605L12.0002 7.94418L9.67465 10.2605C9.40488 10.5302 8.95837 10.5302 8.6886 10.2605C8.55837 10.1209 8.48395 9.94418 8.48395 9.76744Z" fill="#253017"/>
<path d="M8.48344 14.2325C8.48344 14.0558 8.54855 13.8791 8.68809 13.7395C8.95786 13.4698 9.40437 13.4698 9.67414 13.7395L11.9997 16.0558L14.3253 13.7395C14.5951 13.4698 15.0416 13.4698 15.3113 13.7395C15.5811 14.0093 15.5811 14.4558 15.3113 14.7256L12.9951 17.0419C12.4462 17.5907 11.5625 17.5907 11.0137 17.0419L8.69739 14.7256C8.55786 14.5953 8.48344 14.4093 8.48344 14.2325Z" fill="#253017"/>
</svg>
