<svg width="24" height="24" viewBox="0 0 24 24" fill="none" xmlns="http://www.w3.org/2000/svg">
<path d="M10.5636 7.82219C10.3881 7.82219 10.2125 7.75755 10.074 7.61898L7.12706 4.67207L4.18015 7.61898C3.91225 7.88688 3.46883 7.88688 3.20093 7.61898C2.93302 7.35108 2.93302 6.90766 3.20093 6.63976L6.63748 3.20321C6.76681 3.07388 6.9423 3 7.12706 3C7.31182 3 7.48737 3.07388 7.6167 3.20321L11.0532 6.63976C11.3211 6.90766 11.3211 7.35108 11.0532 7.61898C10.9146 7.75755 10.7391 7.82219 10.5636 7.82219Z" fill="#253017"/>
<path d="M7.12644 21.014C6.74768 21.014 6.43359 20.6999 6.43359 20.3212V3.69285C6.43359 3.31409 6.74768 3 7.12644 3C7.5052 3 7.81929 3.31409 7.81929 3.69285V20.3212C7.81929 20.6999 7.5052 21.014 7.12644 21.014Z" fill="#253017"/>
<path d="M16.8732 21.014C16.6884 21.014 16.5128 20.9401 16.3835 20.8108L12.947 17.3743C12.6791 17.1064 12.6791 16.6629 12.947 16.395C13.2149 16.1271 13.6583 16.1271 13.9262 16.395L16.8732 19.3419L19.82 16.395C20.0879 16.1271 20.5314 16.1271 20.7993 16.395C21.0672 16.6629 21.0672 17.1064 20.7993 17.3743L17.3627 20.8108C17.2334 20.9401 17.0487 21.014 16.8732 21.014Z" fill="#253017"/>
<path d="M16.8637 21.014C16.485 21.014 16.1709 20.6999 16.1709 20.3212V3.69285C16.1709 3.31409 16.485 3 16.8637 3C17.2425 3 17.5566 3.31409 17.5566 3.69285V20.3212C17.5566 20.6999 17.2517 21.014 16.8637 21.014Z" fill="#253017"/>
</svg>
