<svg width="24" height="24" viewBox="0 0 24 24" fill="none" xmlns="http://www.w3.org/2000/svg">
<path d="M17.982 18.725C17.2831 17.8 16.3791 17.0498 15.3411 16.5336C14.303 16.0173 13.1593 15.7491 12 15.75C10.8407 15.7491 9.69695 16.0173 8.65891 16.5336C7.62087 17.0498 6.71684 17.8 6.01799 18.725M17.982 18.725C19.3455 17.5122 20.3081 15.9136 20.7422 14.1411C21.1762 12.3686 21.0613 10.5061 20.4125 8.80049C19.7637 7.09488 18.6117 5.62679 17.1094 4.59091C15.6071 3.55503 13.8253 3.00031 12.0005 3.00031C10.1757 3.00031 8.39392 3.55503 6.89159 4.59091C5.38926 5.62679 4.23732 7.09488 3.58852 8.80049C2.93973 10.5061 2.82474 12.3686 3.25881 14.1411C3.69288 15.9136 4.65449 17.5122 6.01799 18.725M17.982 18.725C16.3358 20.1929 14.2055 21.0028 12 21C9.79409 21.003 7.66442 20.1931 6.01799 18.725M15 9.75001C15 10.5457 14.6839 11.3087 14.1213 11.8713C13.5587 12.4339 12.7956 12.75 12 12.75C11.2043 12.75 10.4413 12.4339 9.87867 11.8713C9.31606 11.3087 8.99999 10.5457 8.99999 9.75001C8.99999 8.95436 9.31606 8.1913 9.87867 7.62869C10.4413 7.06608 11.2043 6.75001 12 6.75001C12.7956 6.75001 13.5587 7.06608 14.1213 7.62869C14.6839 8.1913 15 8.95436 15 9.75001Z" stroke="#253017" stroke-width="1.5" stroke-linecap="round" stroke-linejoin="round"/>
</svg>
