<svg width="24" height="24" viewBox="0 0 24 24" fill="none" xmlns="http://www.w3.org/2000/svg">
<path d="M11.988 12.6977C9.03916 12.6977 6.63916 10.2977 6.63916 7.34884C6.63916 4.4 9.03916 2 11.988 2C14.9368 2 17.3368 4.4 17.3368 7.34884C17.3368 10.2977 14.9368 12.6977 11.988 12.6977ZM11.988 3.39535C9.81125 3.39535 8.03451 5.17209 8.03451 7.34884C8.03451 9.52558 9.81125 11.3023 11.988 11.3023C14.1647 11.3023 15.9415 9.52558 15.9415 7.34884C15.9415 5.17209 14.1647 3.39535 11.988 3.39535Z" fill="#253017"/>
<path d="M19.9789 22C19.5975 22 19.2812 21.6837 19.2812 21.3023C19.2812 18.093 16.0068 15.4884 11.9882 15.4884C7.96957 15.4884 4.69515 18.093 4.69515 21.3023C4.69515 21.6837 4.37887 22 3.99748 22C3.61608 22 3.2998 21.6837 3.2998 21.3023C3.2998 17.3302 7.19748 14.093 11.9882 14.093C16.7789 14.093 20.6765 17.3302 20.6765 21.3023C20.6765 21.6837 20.3603 22 19.9789 22Z" fill="#253017"/>
</svg>
